<mxfile host="app.diagrams.net" agent="Mozilla/5.0 (Windows NT 10.0; Win64; x64) AppleWebKit/537.36 (KHTML, like Gecko) Chrome/136.0.0.0 Safari/537.36" version="27.0.9">
  <diagram name="Page-1" id="5Tx74xS0qSwGj4PKJpqM">
    <mxGraphModel dx="2435" dy="878" grid="1" gridSize="10" guides="1" tooltips="1" connect="1" arrows="1" fold="1" page="1" pageScale="1" pageWidth="850" pageHeight="1100" math="0" shadow="0">
      <root>
        <mxCell id="0" />
        <mxCell id="1" parent="0" />
        <mxCell id="ZUMvITLSYGSGIxtLo2zt-1" value="" style="shape=mxgraph.cisco.routers.10700;sketch=0;html=1;pointerEvents=1;dashed=0;fillColor=#036897;strokeColor=#ffffff;strokeWidth=2;verticalLabelPosition=bottom;verticalAlign=top;align=center;outlineConnect=0;" vertex="1" parent="1">
          <mxGeometry x="240" y="150" width="40" height="30" as="geometry" />
        </mxCell>
        <mxCell id="ZUMvITLSYGSGIxtLo2zt-20" style="edgeStyle=orthogonalEdgeStyle;rounded=0;orthogonalLoop=1;jettySize=auto;html=1;exitX=0;exitY=0.5;exitDx=0;exitDy=0;exitPerimeter=0;" edge="1" parent="1" source="ZUMvITLSYGSGIxtLo2zt-2" target="ZUMvITLSYGSGIxtLo2zt-1">
          <mxGeometry relative="1" as="geometry" />
        </mxCell>
        <mxCell id="ZUMvITLSYGSGIxtLo2zt-2" value="" style="shape=mxgraph.cisco.routers.10700;sketch=0;html=1;pointerEvents=1;dashed=0;fillColor=#036897;strokeColor=#ffffff;strokeWidth=2;verticalLabelPosition=bottom;verticalAlign=top;align=center;outlineConnect=0;" vertex="1" parent="1">
          <mxGeometry x="470" y="150" width="40" height="30" as="geometry" />
        </mxCell>
        <mxCell id="ZUMvITLSYGSGIxtLo2zt-3" value="" style="shape=mxgraph.cisco.routers.10700;sketch=0;html=1;pointerEvents=1;dashed=0;fillColor=#036897;strokeColor=#ffffff;strokeWidth=2;verticalLabelPosition=bottom;verticalAlign=top;align=center;outlineConnect=0;" vertex="1" parent="1">
          <mxGeometry x="240" y="360" width="40" height="30" as="geometry" />
        </mxCell>
        <mxCell id="ZUMvITLSYGSGIxtLo2zt-4" value="" style="shape=mxgraph.cisco.routers.10700;sketch=0;html=1;pointerEvents=1;dashed=0;fillColor=#036897;strokeColor=#ffffff;strokeWidth=2;verticalLabelPosition=bottom;verticalAlign=top;align=center;outlineConnect=0;" vertex="1" parent="1">
          <mxGeometry x="470" y="360" width="40" height="30" as="geometry" />
        </mxCell>
        <mxCell id="ZUMvITLSYGSGIxtLo2zt-21" style="edgeStyle=orthogonalEdgeStyle;rounded=0;orthogonalLoop=1;jettySize=auto;html=1;exitX=0.98;exitY=0.5;exitDx=0;exitDy=0;exitPerimeter=0;" edge="1" parent="1" source="ZUMvITLSYGSGIxtLo2zt-6" target="ZUMvITLSYGSGIxtLo2zt-1">
          <mxGeometry relative="1" as="geometry" />
        </mxCell>
        <mxCell id="ZUMvITLSYGSGIxtLo2zt-6" value="" style="shape=mxgraph.cisco.switches.workgroup_switch;sketch=0;html=1;pointerEvents=1;dashed=0;fillColor=#036897;strokeColor=#ffffff;strokeWidth=2;verticalLabelPosition=bottom;verticalAlign=top;align=center;outlineConnect=0;" vertex="1" parent="1">
          <mxGeometry x="20" y="155" width="40" height="20" as="geometry" />
        </mxCell>
        <mxCell id="ZUMvITLSYGSGIxtLo2zt-7" value="" style="shape=mxgraph.cisco.switches.workgroup_switch;sketch=0;html=1;pointerEvents=1;dashed=0;fillColor=#036897;strokeColor=#ffffff;strokeWidth=2;verticalLabelPosition=bottom;verticalAlign=top;align=center;outlineConnect=0;" vertex="1" parent="1">
          <mxGeometry x="20" y="370" width="40" height="20" as="geometry" />
        </mxCell>
        <mxCell id="ZUMvITLSYGSGIxtLo2zt-9" value="" style="shape=mxgraph.cisco.switches.workgroup_switch;sketch=0;html=1;pointerEvents=1;dashed=0;fillColor=#036897;strokeColor=#ffffff;strokeWidth=2;verticalLabelPosition=bottom;verticalAlign=top;align=center;outlineConnect=0;" vertex="1" parent="1">
          <mxGeometry x="680" y="150" width="40" height="20" as="geometry" />
        </mxCell>
        <mxCell id="ZUMvITLSYGSGIxtLo2zt-10" value="" style="shape=mxgraph.cisco.switches.workgroup_switch;sketch=0;html=1;pointerEvents=1;dashed=0;fillColor=#036897;strokeColor=#ffffff;strokeWidth=2;verticalLabelPosition=bottom;verticalAlign=top;align=center;outlineConnect=0;" vertex="1" parent="1">
          <mxGeometry x="680" y="365" width="40" height="20" as="geometry" />
        </mxCell>
        <mxCell id="ZUMvITLSYGSGIxtLo2zt-11" value="" style="shape=mxgraph.cisco.computers_and_peripherals.pc;sketch=0;html=1;pointerEvents=1;dashed=0;fillColor=#036897;strokeColor=#ffffff;strokeWidth=2;verticalLabelPosition=bottom;verticalAlign=top;align=center;outlineConnect=0;" vertex="1" parent="1">
          <mxGeometry x="-220" y="137.5" width="50" height="45" as="geometry" />
        </mxCell>
        <mxCell id="ZUMvITLSYGSGIxtLo2zt-12" value="" style="shape=mxgraph.cisco.computers_and_peripherals.pc;sketch=0;html=1;pointerEvents=1;dashed=0;fillColor=#036897;strokeColor=#ffffff;strokeWidth=2;verticalLabelPosition=bottom;verticalAlign=top;align=center;outlineConnect=0;" vertex="1" parent="1">
          <mxGeometry x="-220" y="357.5" width="50" height="45" as="geometry" />
        </mxCell>
        <mxCell id="ZUMvITLSYGSGIxtLo2zt-13" value="" style="shape=mxgraph.cisco.computers_and_peripherals.pc;sketch=0;html=1;pointerEvents=1;dashed=0;fillColor=#036897;strokeColor=#ffffff;strokeWidth=2;verticalLabelPosition=bottom;verticalAlign=top;align=center;outlineConnect=0;" vertex="1" parent="1">
          <mxGeometry x="930" y="137.5" width="50" height="45" as="geometry" />
        </mxCell>
        <mxCell id="ZUMvITLSYGSGIxtLo2zt-14" value="" style="shape=mxgraph.cisco.computers_and_peripherals.pc;sketch=0;html=1;pointerEvents=1;dashed=0;fillColor=#036897;strokeColor=#ffffff;strokeWidth=2;verticalLabelPosition=bottom;verticalAlign=top;align=center;outlineConnect=0;" vertex="1" parent="1">
          <mxGeometry x="930" y="357.5" width="50" height="45" as="geometry" />
        </mxCell>
        <mxCell id="ZUMvITLSYGSGIxtLo2zt-16" style="edgeStyle=orthogonalEdgeStyle;rounded=0;orthogonalLoop=1;jettySize=auto;html=1;exitX=0.5;exitY=1;exitDx=0;exitDy=0;exitPerimeter=0;entryX=0.5;entryY=0;entryDx=0;entryDy=0;entryPerimeter=0;" edge="1" parent="1" source="ZUMvITLSYGSGIxtLo2zt-39" target="ZUMvITLSYGSGIxtLo2zt-3">
          <mxGeometry relative="1" as="geometry" />
        </mxCell>
        <mxCell id="ZUMvITLSYGSGIxtLo2zt-18" style="edgeStyle=orthogonalEdgeStyle;rounded=0;orthogonalLoop=1;jettySize=auto;html=1;exitX=1;exitY=0.5;exitDx=0;exitDy=0;exitPerimeter=0;entryX=0;entryY=0.5;entryDx=0;entryDy=0;entryPerimeter=0;" edge="1" parent="1" source="ZUMvITLSYGSGIxtLo2zt-3" target="ZUMvITLSYGSGIxtLo2zt-4">
          <mxGeometry relative="1" as="geometry" />
        </mxCell>
        <mxCell id="ZUMvITLSYGSGIxtLo2zt-19" style="edgeStyle=orthogonalEdgeStyle;rounded=0;orthogonalLoop=1;jettySize=auto;html=1;exitX=0.5;exitY=0;exitDx=0;exitDy=0;exitPerimeter=0;entryX=0.5;entryY=1;entryDx=0;entryDy=0;entryPerimeter=0;" edge="1" parent="1" source="ZUMvITLSYGSGIxtLo2zt-43" target="ZUMvITLSYGSGIxtLo2zt-2">
          <mxGeometry relative="1" as="geometry" />
        </mxCell>
        <mxCell id="ZUMvITLSYGSGIxtLo2zt-22" style="edgeStyle=orthogonalEdgeStyle;rounded=0;orthogonalLoop=1;jettySize=auto;html=1;exitX=0.98;exitY=0.5;exitDx=0;exitDy=0;exitPerimeter=0;entryX=0;entryY=0.5;entryDx=0;entryDy=0;entryPerimeter=0;" edge="1" parent="1" source="ZUMvITLSYGSGIxtLo2zt-7" target="ZUMvITLSYGSGIxtLo2zt-3">
          <mxGeometry relative="1" as="geometry" />
        </mxCell>
        <mxCell id="ZUMvITLSYGSGIxtLo2zt-23" style="edgeStyle=orthogonalEdgeStyle;rounded=0;orthogonalLoop=1;jettySize=auto;html=1;exitX=0;exitY=0.5;exitDx=0;exitDy=0;exitPerimeter=0;entryX=1;entryY=0.5;entryDx=0;entryDy=0;entryPerimeter=0;" edge="1" parent="1" source="ZUMvITLSYGSGIxtLo2zt-10" target="ZUMvITLSYGSGIxtLo2zt-4">
          <mxGeometry relative="1" as="geometry" />
        </mxCell>
        <mxCell id="ZUMvITLSYGSGIxtLo2zt-24" style="edgeStyle=orthogonalEdgeStyle;rounded=0;orthogonalLoop=1;jettySize=auto;html=1;exitX=0;exitY=0.5;exitDx=0;exitDy=0;exitPerimeter=0;entryX=1;entryY=0.5;entryDx=0;entryDy=0;entryPerimeter=0;" edge="1" parent="1" source="ZUMvITLSYGSGIxtLo2zt-9" target="ZUMvITLSYGSGIxtLo2zt-2">
          <mxGeometry relative="1" as="geometry" />
        </mxCell>
        <mxCell id="ZUMvITLSYGSGIxtLo2zt-25" style="edgeStyle=orthogonalEdgeStyle;rounded=0;orthogonalLoop=1;jettySize=auto;html=1;exitX=0.83;exitY=0.5;exitDx=0;exitDy=0;exitPerimeter=0;entryX=0;entryY=0.5;entryDx=0;entryDy=0;entryPerimeter=0;" edge="1" parent="1" source="ZUMvITLSYGSGIxtLo2zt-11" target="ZUMvITLSYGSGIxtLo2zt-6">
          <mxGeometry relative="1" as="geometry" />
        </mxCell>
        <mxCell id="ZUMvITLSYGSGIxtLo2zt-26" style="edgeStyle=orthogonalEdgeStyle;rounded=0;orthogonalLoop=1;jettySize=auto;html=1;exitX=0.83;exitY=0.5;exitDx=0;exitDy=0;exitPerimeter=0;entryX=0;entryY=0.5;entryDx=0;entryDy=0;entryPerimeter=0;" edge="1" parent="1" source="ZUMvITLSYGSGIxtLo2zt-12" target="ZUMvITLSYGSGIxtLo2zt-7">
          <mxGeometry relative="1" as="geometry" />
        </mxCell>
        <mxCell id="ZUMvITLSYGSGIxtLo2zt-27" style="edgeStyle=orthogonalEdgeStyle;rounded=0;orthogonalLoop=1;jettySize=auto;html=1;exitX=0.16;exitY=0.5;exitDx=0;exitDy=0;exitPerimeter=0;entryX=0.98;entryY=0.5;entryDx=0;entryDy=0;entryPerimeter=0;" edge="1" parent="1" source="ZUMvITLSYGSGIxtLo2zt-13" target="ZUMvITLSYGSGIxtLo2zt-9">
          <mxGeometry relative="1" as="geometry" />
        </mxCell>
        <mxCell id="ZUMvITLSYGSGIxtLo2zt-28" style="edgeStyle=orthogonalEdgeStyle;rounded=0;orthogonalLoop=1;jettySize=auto;html=1;exitX=0.16;exitY=0.5;exitDx=0;exitDy=0;exitPerimeter=0;entryX=0.98;entryY=0.5;entryDx=0;entryDy=0;entryPerimeter=0;" edge="1" parent="1" source="ZUMvITLSYGSGIxtLo2zt-14" target="ZUMvITLSYGSGIxtLo2zt-10">
          <mxGeometry relative="1" as="geometry" />
        </mxCell>
        <mxCell id="ZUMvITLSYGSGIxtLo2zt-29" value="15 PC&#39;s" style="text;html=1;align=center;verticalAlign=middle;resizable=0;points=[];autosize=1;strokeColor=none;fillColor=none;" vertex="1" parent="1">
          <mxGeometry x="-240" y="188" width="70" height="30" as="geometry" />
        </mxCell>
        <mxCell id="ZUMvITLSYGSGIxtLo2zt-30" value="24 PC&#39;s" style="text;html=1;align=center;verticalAlign=middle;resizable=0;points=[];autosize=1;strokeColor=none;fillColor=none;" vertex="1" parent="1">
          <mxGeometry x="-240" y="327.5" width="70" height="30" as="geometry" />
        </mxCell>
        <mxCell id="ZUMvITLSYGSGIxtLo2zt-33" value="28 PC&#39;s" style="text;html=1;align=center;verticalAlign=middle;resizable=0;points=[];autosize=1;strokeColor=none;fillColor=none;" vertex="1" parent="1">
          <mxGeometry x="920" y="180" width="70" height="30" as="geometry" />
        </mxCell>
        <mxCell id="ZUMvITLSYGSGIxtLo2zt-34" value="56 PC&#39;s" style="text;html=1;align=center;verticalAlign=middle;resizable=0;points=[];autosize=1;strokeColor=none;fillColor=none;" vertex="1" parent="1">
          <mxGeometry x="920" y="327.5" width="70" height="30" as="geometry" />
        </mxCell>
        <mxCell id="ZUMvITLSYGSGIxtLo2zt-35" value="SW" style="text;html=1;align=center;verticalAlign=middle;resizable=0;points=[];autosize=1;strokeColor=none;fillColor=none;" vertex="1" parent="1">
          <mxGeometry x="20" y="175" width="40" height="30" as="geometry" />
        </mxCell>
        <mxCell id="ZUMvITLSYGSGIxtLo2zt-36" value="SW" style="text;html=1;align=center;verticalAlign=middle;resizable=0;points=[];autosize=1;strokeColor=none;fillColor=none;" vertex="1" parent="1">
          <mxGeometry x="20" y="340" width="40" height="30" as="geometry" />
        </mxCell>
        <mxCell id="ZUMvITLSYGSGIxtLo2zt-37" value="SW" style="text;html=1;align=center;verticalAlign=middle;resizable=0;points=[];autosize=1;strokeColor=none;fillColor=none;" vertex="1" parent="1">
          <mxGeometry x="680" y="170" width="40" height="30" as="geometry" />
        </mxCell>
        <mxCell id="ZUMvITLSYGSGIxtLo2zt-38" value="SW" style="text;html=1;align=center;verticalAlign=middle;resizable=0;points=[];autosize=1;strokeColor=none;fillColor=none;" vertex="1" parent="1">
          <mxGeometry x="680" y="340" width="40" height="30" as="geometry" />
        </mxCell>
        <mxCell id="ZUMvITLSYGSGIxtLo2zt-40" value="" style="edgeStyle=orthogonalEdgeStyle;rounded=0;orthogonalLoop=1;jettySize=auto;html=1;exitX=0.5;exitY=1;exitDx=0;exitDy=0;exitPerimeter=0;entryX=0.5;entryY=0;entryDx=0;entryDy=0;entryPerimeter=0;" edge="1" parent="1" source="ZUMvITLSYGSGIxtLo2zt-1" target="ZUMvITLSYGSGIxtLo2zt-39">
          <mxGeometry relative="1" as="geometry">
            <mxPoint x="260" y="180" as="sourcePoint" />
            <mxPoint x="260" y="360" as="targetPoint" />
          </mxGeometry>
        </mxCell>
        <mxCell id="ZUMvITLSYGSGIxtLo2zt-39" value="&lt;b&gt;R0&lt;/b&gt;" style="text;html=1;align=center;verticalAlign=middle;resizable=0;points=[];autosize=1;strokeColor=none;fillColor=none;" vertex="1" parent="1">
          <mxGeometry x="240" y="182.5" width="40" height="30" as="geometry" />
        </mxCell>
        <mxCell id="ZUMvITLSYGSGIxtLo2zt-44" value="" style="edgeStyle=orthogonalEdgeStyle;rounded=0;orthogonalLoop=1;jettySize=auto;html=1;exitX=0.5;exitY=0;exitDx=0;exitDy=0;exitPerimeter=0;entryX=0.5;entryY=1;entryDx=0;entryDy=0;entryPerimeter=0;" edge="1" parent="1" source="ZUMvITLSYGSGIxtLo2zt-46" target="ZUMvITLSYGSGIxtLo2zt-43">
          <mxGeometry relative="1" as="geometry">
            <mxPoint x="490" y="360" as="sourcePoint" />
            <mxPoint x="490" y="180" as="targetPoint" />
          </mxGeometry>
        </mxCell>
        <mxCell id="ZUMvITLSYGSGIxtLo2zt-43" value="&lt;b&gt;R1&lt;/b&gt;" style="text;html=1;align=center;verticalAlign=middle;resizable=0;points=[];autosize=1;strokeColor=none;fillColor=none;" vertex="1" parent="1">
          <mxGeometry x="470" y="182.5" width="40" height="30" as="geometry" />
        </mxCell>
        <mxCell id="ZUMvITLSYGSGIxtLo2zt-45" value="&lt;b&gt;R2&lt;/b&gt;" style="text;html=1;align=center;verticalAlign=middle;resizable=0;points=[];autosize=1;strokeColor=none;fillColor=none;labelBackgroundColor=default;" vertex="1" parent="1">
          <mxGeometry x="240" y="320" width="40" height="30" as="geometry" />
        </mxCell>
        <mxCell id="ZUMvITLSYGSGIxtLo2zt-47" value="" style="edgeStyle=orthogonalEdgeStyle;rounded=0;orthogonalLoop=1;jettySize=auto;html=1;exitX=0.5;exitY=0;exitDx=0;exitDy=0;exitPerimeter=0;entryX=0.5;entryY=1;entryDx=0;entryDy=0;entryPerimeter=0;" edge="1" parent="1" source="ZUMvITLSYGSGIxtLo2zt-4" target="ZUMvITLSYGSGIxtLo2zt-46">
          <mxGeometry relative="1" as="geometry">
            <mxPoint x="490" y="360" as="sourcePoint" />
            <mxPoint x="490" y="213" as="targetPoint" />
          </mxGeometry>
        </mxCell>
        <mxCell id="ZUMvITLSYGSGIxtLo2zt-46" value="&lt;b&gt;R3&lt;/b&gt;" style="text;html=1;align=center;verticalAlign=middle;resizable=0;points=[];autosize=1;strokeColor=none;fillColor=none;labelBackgroundColor=default;" vertex="1" parent="1">
          <mxGeometry x="470" y="320" width="40" height="30" as="geometry" />
        </mxCell>
        <mxCell id="ZUMvITLSYGSGIxtLo2zt-48" value="&lt;font style=&quot;font-size: 18px;&quot;&gt;&lt;b&gt;15,24,28,56&lt;/b&gt;&lt;/font&gt;" style="text;html=1;align=center;verticalAlign=middle;resizable=0;points=[];autosize=1;strokeColor=none;fillColor=none;" vertex="1" parent="1">
          <mxGeometry x="-140" y="590" width="120" height="40" as="geometry" />
        </mxCell>
        <mxCell id="ZUMvITLSYGSGIxtLo2zt-49" value="&lt;font style=&quot;font-size: 18px;&quot;&gt;&lt;b&gt;18,27,31,59&lt;/b&gt;&lt;/font&gt;" style="text;html=1;align=center;verticalAlign=middle;resizable=0;points=[];autosize=1;strokeColor=none;fillColor=none;" vertex="1" parent="1">
          <mxGeometry x="-140" y="820" width="120" height="40" as="geometry" />
        </mxCell>
        <mxCell id="ZUMvITLSYGSGIxtLo2zt-51" value="&lt;span style=&quot;font-size: 18px;&quot;&gt;&lt;b&gt;1,1,1,1&lt;/b&gt;&lt;/span&gt;" style="text;html=1;align=center;verticalAlign=middle;resizable=0;points=[];autosize=1;strokeColor=none;fillColor=none;" vertex="1" parent="1">
          <mxGeometry x="610" y="590" width="80" height="40" as="geometry" />
        </mxCell>
        <mxCell id="ZUMvITLSYGSGIxtLo2zt-52" value="&lt;font style=&quot;font-size: 18px;&quot;&gt;&lt;b&gt;4,4,4,4&lt;/b&gt;&lt;/font&gt;" style="text;html=1;align=center;verticalAlign=middle;resizable=0;points=[];autosize=1;strokeColor=none;fillColor=none;" vertex="1" parent="1">
          <mxGeometry x="610" y="820" width="80" height="40" as="geometry" />
        </mxCell>
        <mxCell id="ZUMvITLSYGSGIxtLo2zt-54" value="&lt;font style=&quot;font-size: 19px; background-color: light-dark(rgb(0, 0, 0), rgb(22, 138, 20));&quot;&gt;&amp;nbsp; [No. Of Computers] + Router Port + Net Address + Broadcast Address =&amp;nbsp;&amp;nbsp;&lt;/font&gt;" style="text;html=1;align=center;verticalAlign=middle;resizable=0;points=[];autosize=1;strokeColor=none;fillColor=none;labelBackgroundColor=light-dark(default, #21d1e8);textShadow=1;" vertex="1" parent="1">
          <mxGeometry x="-380" y="630" width="650" height="40" as="geometry" />
        </mxCell>
        <mxCell id="ZUMvITLSYGSGIxtLo2zt-56" value="&lt;font style=&quot;font-size: 19px;&quot;&gt;56 Computers + Router Port + Net Address + Broadcast Address = 59&lt;/font&gt;" style="text;html=1;align=center;verticalAlign=middle;resizable=0;points=[];autosize=1;strokeColor=none;fillColor=none;labelBackgroundColor=none;textShadow=1;" vertex="1" parent="1">
          <mxGeometry x="-360" y="680" width="610" height="40" as="geometry" />
        </mxCell>
        <mxCell id="ZUMvITLSYGSGIxtLo2zt-57" value="&lt;font style=&quot;font-size: 19px;&quot;&gt;28 Computers + Router Port + Net Address + Broadcast Address = 31&lt;/font&gt;" style="text;html=1;align=center;verticalAlign=middle;resizable=0;points=[];autosize=1;strokeColor=none;fillColor=none;labelBackgroundColor=none;textShadow=1;" vertex="1" parent="1">
          <mxGeometry x="-360" y="710" width="610" height="40" as="geometry" />
        </mxCell>
        <mxCell id="ZUMvITLSYGSGIxtLo2zt-59" value="&lt;font style=&quot;font-size: 19px;&quot;&gt;15 Computers + Router Port + Net Address + Broadcast Address = 18&lt;/font&gt;" style="text;html=1;align=center;verticalAlign=middle;resizable=0;points=[];autosize=1;strokeColor=none;fillColor=none;labelBackgroundColor=none;textShadow=1;" vertex="1" parent="1">
          <mxGeometry x="-360" y="770" width="610" height="40" as="geometry" />
        </mxCell>
        <mxCell id="ZUMvITLSYGSGIxtLo2zt-60" value="&lt;font style=&quot;font-size: 19px;&quot;&gt;24 Computers + Router Port + Net Address + Broadcast Address = 27&lt;/font&gt;" style="text;html=1;align=center;verticalAlign=middle;resizable=0;points=[];autosize=1;strokeColor=none;fillColor=none;labelBackgroundColor=none;textShadow=1;" vertex="1" parent="1">
          <mxGeometry x="-360" y="740" width="610" height="40" as="geometry" />
        </mxCell>
        <mxCell id="ZUMvITLSYGSGIxtLo2zt-62" value="&lt;font style=&quot;font-size: 19px; background-color: light-dark(rgb(0, 0, 0), rgb(10, 0, 143));&quot;&gt;&amp;nbsp; 1 Router&#39;s Port + 2 Router&#39;s Port + Net Address + Broadcast Address =&amp;nbsp;&amp;nbsp;&lt;/font&gt;" style="text;html=1;align=center;verticalAlign=middle;resizable=0;points=[];autosize=1;strokeColor=none;fillColor=none;labelBackgroundColor=light-dark(default, #21d1e8);textShadow=1;" vertex="1" parent="1">
          <mxGeometry x="330" y="630" width="640" height="40" as="geometry" />
        </mxCell>
        <mxCell id="ZUMvITLSYGSGIxtLo2zt-63" value="&lt;font style=&quot;font-size: 19px;&quot;&gt;&lt;span&gt;1 Router Port&lt;/span&gt;&amp;nbsp;+ Router Port + Net Address + Broadcast Address = 4&lt;/font&gt;" style="text;html=1;align=center;verticalAlign=middle;resizable=0;points=[];autosize=1;strokeColor=none;fillColor=none;labelBackgroundColor=none;textShadow=1;" vertex="1" parent="1">
          <mxGeometry x="355" y="680" width="590" height="40" as="geometry" />
        </mxCell>
        <mxCell id="ZUMvITLSYGSGIxtLo2zt-64" value="&lt;font style=&quot;font-size: 19px;&quot;&gt;1 Router Port&amp;nbsp;+ Router Port + Net Address + Broadcast Address = 4&lt;/font&gt;" style="text;html=1;align=center;verticalAlign=middle;resizable=0;points=[];autosize=1;strokeColor=none;fillColor=none;labelBackgroundColor=none;textShadow=1;" vertex="1" parent="1">
          <mxGeometry x="355" y="710" width="590" height="40" as="geometry" />
        </mxCell>
        <mxCell id="ZUMvITLSYGSGIxtLo2zt-65" value="&lt;font style=&quot;font-size: 19px;&quot;&gt;1 Router Port&amp;nbsp;+ Router Port + Net Address + Broadcast Address = 4&lt;/font&gt;" style="text;html=1;align=center;verticalAlign=middle;resizable=0;points=[];autosize=1;strokeColor=none;fillColor=none;labelBackgroundColor=none;textShadow=1;" vertex="1" parent="1">
          <mxGeometry x="355" y="740" width="590" height="40" as="geometry" />
        </mxCell>
        <mxCell id="ZUMvITLSYGSGIxtLo2zt-66" value="&lt;font style=&quot;font-size: 19px;&quot;&gt;1 Router Port&amp;nbsp;+ Router Port + Net Address + Broadcast Address = 4&lt;/font&gt;" style="text;html=1;align=center;verticalAlign=middle;resizable=0;points=[];autosize=1;strokeColor=none;fillColor=none;labelBackgroundColor=none;textShadow=1;" vertex="1" parent="1">
          <mxGeometry x="355" y="770" width="590" height="40" as="geometry" />
        </mxCell>
      </root>
    </mxGraphModel>
  </diagram>
</mxfile>
